# xmcd
#
# Track frame offsets: 
#        150
#        12817
#        25273
#        35425
#        45571
#        55526
#        66963
#        76801
#        84990
#        93296
#        103501
#        114524
#        122166
#        134157
#        146390
#        156659
#        167578
#        176792
#        188866
#        197426
#
# Disc length: 2739 seconds
#
# Revision: 0
# Processed by: cddbd v1.5.1PL0 Copyright (c) Steve Scherf et al.
# Submitted via: ExactAudioCopy v0.95a4
#
DISCID=060ab114
DTITLE=Johnny Cash - The 20 Most Requested
DYEAR=2000
DGENRE=Country
TTITLE0=Folsom Prison Blues
TTITLE1=I Walk The Line
TTITLE2=Get Rhythm
TTITLE3=Hey! Porter
TTITLE4=Ballad Of A Teenage Queen
TTITLE5=Big River
TTITLE6=Rock Island Line
TTITLE7=The Wreck Of The Old '97
TTITLE8=Guess Things Happen That Way
TTITLE9=The Ways Of A Woman In Love
TTITLE10=Cry, Cry, Cry
TTITLE11=Come In Stranger
TTITLE12=Home Of The Blues
TTITLE13=Give My Love To Rose
TTITLE14=Straight A's In Love
TTITLE15=I Heard That Lonesome Whistle Cry
TTITLE16=Blue Train
TTITLE17=Goodnight Irene
TTITLE18=I Forgot To Remember To Forget
TTITLE19=I Can't Help It (If I'm Still In Love With You)
EXTD=
EXTT0=
EXTT1=
EXTT2=
EXTT3=
EXTT4=
EXTT5=
EXTT6=
EXTT7=
EXTT8=
EXTT9=
EXTT10=
EXTT11=
EXTT12=
EXTT13=
EXTT14=
EXTT15=
EXTT16=
EXTT17=
EXTT18=
EXTT19=
PLAYORDER=
